<svg width="60" height="60" viewBox="0 0 60 60" fill="none" xmlns="http://www.w3.org/2000/svg">
<circle cx="30" cy="30" r="30" fill="#FD85B2"/>
<path d="M18 28.6C17.2268 28.6 16.6 29.2268 16.6 30C16.6 30.7732 17.2268 31.4 18 31.4V28.6ZM42.99 30.9899C43.5367 30.4432 43.5367 29.5568 42.99 29.0101L34.0804 20.1005C33.5337 19.5538 32.6472 19.5538 32.1005 20.1005C31.5538 20.6472 31.5538 21.5337 32.1005 22.0804L40.0201 30L32.1005 37.9196C31.5538 38.4663 31.5538 39.3528 32.1005 39.8995C32.6472 40.4462 33.5337 40.4462 34.0804 39.8995L42.99 30.9899ZM18 30V31.4H42V30V28.6H18V30Z" fill="#3E3E3E"/>
</svg>
