<svg width="18" height="9" viewBox="0 0 18 9" fill="none" xmlns="http://www.w3.org/2000/svg">
<path d="M17 5C17.2761 5 17.5 4.77614 17.5 4.5C17.5 4.22386 17.2761 4 17 4L17 5ZM0.646446 4.14645C0.451185 4.34171 0.451185 4.65829 0.646446 4.85355L3.82843 8.03554C4.02369 8.2308 4.34027 8.2308 4.53553 8.03553C4.7308 7.84027 4.7308 7.52369 4.53553 7.32843L1.70711 4.5L4.53553 1.67157C4.7308 1.47631 4.7308 1.15973 4.53553 0.964467C4.34027 0.769205 4.02369 0.769205 3.82843 0.964467L0.646446 4.14645ZM17 4.5L17 4L1 4L1 4.5L1 5L17 5L17 4.5Z" fill="#3E3E3E"/>
</svg>
