<svg width="222" height="48" viewBox="0 0 222 48" fill="none" xmlns="http://www.w3.org/2000/svg">
<path d="M24 2H198C210.15 2 220 11.8497 220 24V46H24C11.8497 46 2 36.1503 2 24C2 11.8497 11.8497 2 24 2Z" fill="#FEFAF2" fill-opacity="0.75"/>
<path d="M24 2H198C210.15 2 220 11.8497 220 24V46H24C11.8497 46 2 36.1503 2 24C2 11.8497 11.8497 2 24 2Z" stroke="#2C2C2C" stroke-width="4"/>
<path d="M71.98 31.16C70.9133 31.16 69.92 30.98 69 30.62C68.0933 30.26 67.3067 29.76 66.64 29.12C65.9733 28.4667 65.4533 27.7067 65.08 26.84C64.7067 25.9733 64.52 25.0267 64.52 24C64.52 22.9733 64.7067 22.0267 65.08 21.16C65.4533 20.2933 65.9733 19.54 66.64 18.9C67.3067 18.2467 68.0933 17.74 69 17.38C69.9067 17.02 70.9 16.84 71.98 16.84C73.0467 16.84 74.0267 17.02 74.92 17.38C75.8267 17.7267 76.6133 18.2267 77.28 18.88C77.96 19.52 78.48 20.2733 78.84 21.14C79.2133 22.0067 79.4 22.96 79.4 24C79.4 25.04 79.2133 25.9933 78.84 26.86C78.48 27.7267 77.96 28.4867 77.28 29.14C76.6133 29.78 75.8267 30.28 74.92 30.64C74.0267 30.9867 73.0467 31.16 71.98 31.16ZM71.98 29.38C72.7533 29.38 73.4667 29.2467 74.12 28.98C74.7867 28.7133 75.36 28.34 75.84 27.86C76.3333 27.3667 76.7133 26.7933 76.98 26.14C77.26 25.4867 77.4 24.7733 77.4 24C77.4 23.2267 77.26 22.5133 76.98 21.86C76.7133 21.2067 76.3333 20.64 75.84 20.16C75.36 19.6667 74.7867 19.2867 74.12 19.02C73.4667 18.7533 72.7533 18.62 71.98 18.62C71.1933 18.62 70.4667 18.7533 69.8 19.02C69.1467 19.2867 68.5733 19.6667 68.08 20.16C67.5867 20.64 67.2 21.2067 66.92 21.86C66.6533 22.5133 66.52 23.2267 66.52 24C66.52 24.7733 66.6533 25.4867 66.92 26.14C67.2 26.7933 67.5867 27.3667 68.08 27.86C68.5733 28.34 69.1467 28.7133 69.8 28.98C70.4667 29.2467 71.1933 29.38 71.98 29.38ZM81.1225 33.96L82.1225 29.92L82.3825 31.08C81.9958 31.08 81.6692 30.96 81.4025 30.72C81.1492 30.48 81.0225 30.1533 81.0225 29.74C81.0225 29.34 81.1492 29.0133 81.4025 28.76C81.6692 28.5067 81.9892 28.38 82.3625 28.38C82.7492 28.38 83.0625 28.5133 83.3025 28.78C83.5425 29.0333 83.6625 29.3533 83.6625 29.74C83.6625 29.8733 83.6492 30.0067 83.6225 30.14C83.6092 30.26 83.5758 30.4067 83.5225 30.58C83.4825 30.74 83.4158 30.94 83.3225 31.18L82.3825 33.96H81.1225ZM93.9248 31V21.58L94.4048 22.08H90.0448V20.4H99.7248V22.08H95.3848L95.8448 21.58V31H93.9248ZM112.168 31V20.4H114.088V31H112.168ZM106.468 24C107.815 24.0133 108.835 24.32 109.528 24.92C110.235 25.52 110.588 26.3667 110.588 27.46C110.588 28.6067 110.201 29.4933 109.428 30.12C108.668 30.7333 107.575 31.0333 106.148 31.02L101.688 31V20.4H103.608V23.98L106.468 24ZM106.008 29.56C106.861 29.5733 107.515 29.4 107.968 29.04C108.421 28.68 108.648 28.1467 108.648 27.44C108.648 26.7467 108.421 26.24 107.968 25.92C107.528 25.6 106.875 25.4333 106.008 25.42L103.608 25.38V29.54L106.008 29.56ZM125.292 31V21.58L125.772 22.08H121.412V20.4H131.092V22.08H126.752L127.212 21.58V31H125.292ZM133.595 35C133.089 35 132.595 34.9133 132.115 34.74C131.635 34.58 131.222 34.34 130.875 34.02L131.695 32.58C131.962 32.8333 132.255 33.0267 132.575 33.16C132.895 33.2933 133.235 33.36 133.595 33.36C134.062 33.36 134.449 33.24 134.755 33C135.062 32.76 135.349 32.3333 135.615 31.72L136.275 30.26L136.475 30.02L140.635 20.4H142.515L137.375 32.06C137.069 32.8067 136.722 33.3933 136.335 33.82C135.962 34.2467 135.549 34.5467 135.095 34.72C134.642 34.9067 134.142 35 133.595 35ZM136.115 31.34L131.275 20.4H133.275L137.395 29.84L136.115 31.34ZM146.581 31V21.58L147.061 22.08H142.701V20.4H152.381V22.08H148.041L148.501 21.58V31H146.581ZM154.404 26.58L154.044 17H156.304L155.924 26.58H154.404ZM155.184 31.12C154.811 31.12 154.498 30.9933 154.244 30.74C153.991 30.4867 153.864 30.1867 153.864 29.84C153.864 29.4667 153.991 29.16 154.244 28.92C154.498 28.68 154.811 28.56 155.184 28.56C155.558 28.56 155.864 28.68 156.104 28.92C156.344 29.16 156.464 29.4667 156.464 29.84C156.464 30.1867 156.344 30.4867 156.104 30.74C155.864 30.9933 155.558 31.12 155.184 31.12Z" fill="#3E3E3E"/>
</svg>
