<svg width="179" height="48" viewBox="0 0 179 48" fill="none" xmlns="http://www.w3.org/2000/svg">
<path d="M24 2H155C167.15 2 177 11.8497 177 24C177 36.1503 167.15 46 155 46H2V24C2 11.8497 11.8497 2 24 2Z" fill="#FEFAF2" fill-opacity="0.75"/>
<path d="M24 2H155C167.15 2 177 11.8497 177 24C177 36.1503 167.15 46 155 46H2V24C2 11.8497 11.8497 2 24 2Z" stroke="#2C2C2C" stroke-width="4"/>
<path d="M35.72 17H37.72V31H35.72V17ZM27.68 31H25.68V17H27.68V31ZM35.9 24.76H27.48V23.02H35.9V24.76ZM46.4863 31.12C45.3529 31.12 44.3529 30.8867 43.4863 30.42C42.6329 29.9533 41.9663 29.3133 41.4863 28.5C41.0196 27.6867 40.7863 26.7533 40.7863 25.7C40.7863 24.6467 41.0129 23.7133 41.4663 22.9C41.9329 22.0867 42.5663 21.4533 43.3663 21C44.1796 20.5333 45.0929 20.3 46.1063 20.3C47.1329 20.3 48.0396 20.5267 48.8263 20.98C49.6129 21.4333 50.2263 22.0733 50.6663 22.9C51.1196 23.7133 51.3463 24.6667 51.3463 25.76C51.3463 25.84 51.3396 25.9333 51.3263 26.04C51.3263 26.1467 51.3196 26.2467 51.3063 26.34H42.2863V24.96H50.3063L49.5263 25.44C49.5396 24.76 49.3996 24.1533 49.1063 23.62C48.8129 23.0867 48.4063 22.6733 47.8863 22.38C47.3796 22.0733 46.7863 21.92 46.1063 21.92C45.4396 21.92 44.8463 22.0733 44.3263 22.38C43.8063 22.6733 43.3996 23.0933 43.1063 23.64C42.8129 24.1733 42.6663 24.7867 42.6663 25.48V25.8C42.6663 26.5067 42.8263 27.14 43.1463 27.7C43.4796 28.2467 43.9396 28.6733 44.5263 28.98C45.1129 29.2867 45.7863 29.44 46.5463 29.44C47.1729 29.44 47.7396 29.3333 48.2463 29.12C48.7663 28.9067 49.2196 28.5867 49.6063 28.16L50.6663 29.4C50.1863 29.96 49.5863 30.3867 48.8663 30.68C48.1596 30.9733 47.3663 31.12 46.4863 31.12ZM64.3159 31.12C63.2359 31.12 62.2693 30.8867 61.4159 30.42C60.5759 29.9533 59.9159 29.3133 59.4359 28.5C58.9559 27.6867 58.7159 26.7533 58.7159 25.7C58.7159 24.6467 58.9559 23.7133 59.4359 22.9C59.9159 22.0867 60.5759 21.4533 61.4159 21C62.2693 20.5333 63.2359 20.3 64.3159 20.3C65.2759 20.3 66.1293 20.4933 66.8759 20.88C67.6359 21.2533 68.2226 21.8133 68.6359 22.56L67.1759 23.5C66.8293 22.98 66.4026 22.6 65.8959 22.36C65.4026 22.1067 64.8693 21.98 64.2959 21.98C63.6026 21.98 62.9826 22.1333 62.4359 22.44C61.8893 22.7467 61.4559 23.18 61.1359 23.74C60.8159 24.2867 60.6559 24.94 60.6559 25.7C60.6559 26.46 60.8159 27.12 61.1359 27.68C61.4559 28.24 61.8893 28.6733 62.4359 28.98C62.9826 29.2867 63.6026 29.44 64.2959 29.44C64.8693 29.44 65.4026 29.32 65.8959 29.08C66.4026 28.8267 66.8293 28.44 67.1759 27.92L68.6359 28.84C68.2226 29.5733 67.6359 30.14 66.8759 30.54C66.1293 30.9267 65.2759 31.12 64.3159 31.12ZM71.1217 31V20.4H73.1017L77.6617 28.24H76.8617L81.5417 20.4H83.3417V31H81.6017V22.56L81.9217 22.74L77.6417 29.8H76.8017L72.5017 22.6L72.8817 22.52V31H71.1217ZM91.6188 31.12C90.5521 31.12 89.6054 30.8867 88.7788 30.42C87.9521 29.9533 87.2988 29.3133 86.8188 28.5C86.3388 27.6733 86.0988 26.74 86.0988 25.7C86.0988 24.6467 86.3388 23.7133 86.8188 22.9C87.2988 22.0867 87.9521 21.4533 88.7788 21C89.6054 20.5333 90.5521 20.3 91.6188 20.3C92.6721 20.3 93.6121 20.5333 94.4388 21C95.2788 21.4533 95.9321 22.0867 96.3988 22.9C96.8788 23.7 97.1188 24.6333 97.1188 25.7C97.1188 26.7533 96.8788 27.6867 96.3988 28.5C95.9321 29.3133 95.2788 29.9533 94.4388 30.42C93.6121 30.8867 92.6721 31.12 91.6188 31.12ZM91.6188 29.44C92.2988 29.44 92.9054 29.2867 93.4388 28.98C93.9854 28.6733 94.4121 28.24 94.7188 27.68C95.0254 27.1067 95.1788 26.4467 95.1788 25.7C95.1788 24.94 95.0254 24.2867 94.7188 23.74C94.4121 23.18 93.9854 22.7467 93.4388 22.44C92.9054 22.1333 92.2988 21.98 91.6188 21.98C90.9388 21.98 90.3321 22.1333 89.7988 22.44C89.2654 22.7467 88.8388 23.18 88.5188 23.74C88.1988 24.2867 88.0388 24.94 88.0388 25.7C88.0388 26.4467 88.1988 27.1067 88.5188 27.68C88.8388 28.24 89.2654 28.6733 89.7988 28.98C90.3321 29.2867 90.9388 29.44 91.6188 29.44ZM101.601 31V21.58L102.081 22.08H97.7206V20.4H107.401V22.08H103.061L103.521 21.58V31H101.601ZM114.984 31.12C114.104 31.12 113.297 30.92 112.564 30.52C111.844 30.1067 111.264 29.5 110.824 28.7C110.397 27.9 110.184 26.9 110.184 25.7C110.184 24.5 110.391 23.5 110.804 22.7C111.231 21.9 111.804 21.3 112.524 20.9C113.257 20.5 114.077 20.3 114.984 20.3C116.024 20.3 116.944 20.5267 117.744 20.98C118.544 21.4333 119.177 22.0667 119.644 22.88C120.111 23.68 120.344 24.62 120.344 25.7C120.344 26.78 120.111 27.7267 119.644 28.54C119.177 29.3533 118.544 29.9867 117.744 30.44C116.944 30.8933 116.024 31.12 114.984 31.12ZM109.364 34.88V20.4H111.204V23.26L111.084 25.72L111.284 28.18V34.88H109.364ZM114.824 29.44C115.504 29.44 116.111 29.2867 116.644 28.98C117.191 28.6733 117.617 28.24 117.924 27.68C118.244 27.1067 118.404 26.4467 118.404 25.7C118.404 24.94 118.244 24.2867 117.924 23.74C117.617 23.18 117.191 22.7467 116.644 22.44C116.111 22.1333 115.504 21.98 114.824 21.98C114.157 21.98 113.551 22.1333 113.004 22.44C112.471 22.7467 112.044 23.18 111.724 23.74C111.417 24.2867 111.264 24.94 111.264 25.7C111.264 26.4467 111.417 27.1067 111.724 27.68C112.044 28.24 112.471 28.6733 113.004 28.98C113.551 29.2867 114.157 29.44 114.824 29.44ZM123.133 31V20.4H125.053V24.74H128.253V26.52H125.053V31H123.133ZM132.513 31.12C131.473 31.12 130.547 30.8867 129.733 30.42C128.933 29.9533 128.3 29.3133 127.833 28.5C127.367 27.6733 127.133 26.74 127.133 25.7C127.133 24.6467 127.367 23.7133 127.833 22.9C128.3 22.0733 128.933 21.4333 129.733 20.98C130.547 20.5267 131.473 20.3 132.513 20.3C133.54 20.3 134.46 20.5267 135.273 20.98C136.087 21.4333 136.727 22.0733 137.193 22.9C137.66 23.7133 137.893 24.6467 137.893 25.7C137.893 26.7533 137.66 27.6867 137.193 28.5C136.727 29.3133 136.087 29.9533 135.273 30.42C134.46 30.8867 133.54 31.12 132.513 31.12ZM132.513 29.44C133.18 29.44 133.773 29.2867 134.293 28.98C134.813 28.66 135.227 28.2267 135.533 27.68C135.84 27.12 135.993 26.46 135.993 25.7C135.993 24.94 135.84 24.2867 135.533 23.74C135.227 23.18 134.813 22.7467 134.293 22.44C133.773 22.1333 133.18 21.98 132.513 21.98C131.86 21.98 131.267 22.1333 130.733 22.44C130.213 22.7467 129.8 23.18 129.493 23.74C129.187 24.2867 129.033 24.94 129.033 25.7C129.033 26.46 129.187 27.12 129.493 27.68C129.8 28.2267 130.213 28.66 130.733 28.98C131.267 29.2867 131.86 29.44 132.513 29.44ZM146.444 23.04C146.071 23.04 145.751 22.9133 145.484 22.66C145.217 22.3933 145.084 22.06 145.084 21.66C145.084 21.26 145.217 20.9333 145.484 20.68C145.751 20.4267 146.071 20.3 146.444 20.3C146.804 20.3 147.111 20.4267 147.364 20.68C147.631 20.9333 147.764 21.26 147.764 21.66C147.764 22.06 147.631 22.3933 147.364 22.66C147.111 22.9133 146.804 23.04 146.444 23.04ZM146.444 31.12C146.071 31.12 145.751 30.9933 145.484 30.74C145.217 30.4733 145.084 30.14 145.084 29.74C145.084 29.34 145.217 29.0133 145.484 28.76C145.751 28.5067 146.071 28.38 146.444 28.38C146.804 28.38 147.111 28.5067 147.364 28.76C147.631 29.0133 147.764 29.34 147.764 29.74C147.764 30.14 147.631 30.4733 147.364 30.74C147.111 30.9933 146.804 31.12 146.444 31.12ZM151.155 34.88H149.335C150.149 33.4667 150.742 31.9933 151.115 30.46C151.489 28.9133 151.675 27.2667 151.675 25.52C151.675 23.7733 151.489 22.1333 151.115 20.6C150.742 19.0533 150.149 17.5733 149.335 16.16H151.155C151.942 17.3467 152.535 18.7467 152.935 20.36C153.349 21.96 153.555 23.68 153.555 25.52C153.555 27.36 153.349 29.08 152.935 30.68C152.535 32.2667 151.942 33.6667 151.155 34.88Z" fill="#3E3E3E"/>
</svg>
