<svg width="222" height="48" viewBox="0 0 222 48" fill="none" xmlns="http://www.w3.org/2000/svg">
<path d="M24 2H198C210.15 2 220 11.8497 220 24V46H24C11.8497 46 2 36.1503 2 24C2 11.8497 11.8497 2 24 2Z" fill="#FEFAF2" fill-opacity="0.75"/>
<path d="M24 2H198C210.15 2 220 11.8497 220 24V46H24C11.8497 46 2 36.1503 2 24C2 11.8497 11.8497 2 24 2Z" stroke="#2C2C2C" stroke-width="4"/>
<path d="M25.18 31V17H30.64C31.8667 17 32.9133 17.1933 33.78 17.58C34.6467 17.9667 35.3133 18.5267 35.78 19.26C36.2467 19.9933 36.48 20.8667 36.48 21.88C36.48 22.8933 36.2467 23.7667 35.78 24.5C35.3133 25.22 34.6467 25.78 33.78 26.18C32.9133 26.5667 31.8667 26.76 30.64 26.76H26.28L27.18 25.82V31H25.18ZM27.18 26.02L26.28 25.02H30.58C31.86 25.02 32.8267 24.7467 33.48 24.2C34.1467 23.6533 34.48 22.88 34.48 21.88C34.48 20.88 34.1467 20.1067 33.48 19.56C32.8267 19.0133 31.86 18.74 30.58 18.74H26.28L27.18 17.74V26.02ZM45.3444 31V28.76L45.2444 28.34V24.52C45.2444 23.7067 45.0044 23.08 44.5244 22.64C44.0577 22.1867 43.351 21.96 42.4044 21.96C41.7777 21.96 41.1644 22.0667 40.5644 22.28C39.9644 22.48 39.4577 22.7533 39.0444 23.1L38.2444 21.66C38.791 21.22 39.4444 20.8867 40.2044 20.66C40.9777 20.42 41.7844 20.3 42.6244 20.3C44.0777 20.3 45.1977 20.6533 45.9844 21.36C46.771 22.0667 47.1644 23.1467 47.1644 24.6V31H45.3444ZM41.8644 31.12C41.0777 31.12 40.3844 30.9867 39.7844 30.72C39.1977 30.4533 38.7444 30.0867 38.4244 29.62C38.1044 29.14 37.9444 28.6 37.9444 28C37.9444 27.4267 38.0777 26.9067 38.3444 26.44C38.6244 25.9733 39.071 25.6 39.6844 25.32C40.311 25.04 41.151 24.9 42.2044 24.9H45.5644V26.28H42.2844C41.3244 26.28 40.6777 26.44 40.3444 26.76C40.011 27.08 39.8444 27.4667 39.8444 27.92C39.8444 28.44 40.051 28.86 40.4644 29.18C40.8777 29.4867 41.451 29.64 42.1844 29.64C42.9044 29.64 43.531 29.48 44.0644 29.16C44.611 28.84 45.0044 28.3733 45.2444 27.76L45.6244 29.08C45.371 29.7067 44.9244 30.2067 44.2844 30.58C43.6444 30.94 42.8377 31.12 41.8644 31.12ZM57.8617 30.1V22.08H53.2617L53.1617 24.12C53.1351 24.7867 53.0884 25.4333 53.0217 26.06C52.9684 26.6733 52.8751 27.24 52.7417 27.76C52.6217 28.28 52.4417 28.7067 52.2017 29.04C51.9617 29.3733 51.6417 29.58 51.2417 29.66L49.3417 29.32C49.7551 29.3333 50.0884 29.2 50.3417 28.92C50.5951 28.6267 50.7884 28.2267 50.9217 27.72C51.0684 27.2133 51.1751 26.64 51.2417 26C51.3084 25.3467 51.3617 24.6733 51.4017 23.98L51.5617 20.4H59.7817V30.1H57.8617ZM48.9217 33.46V29.32H61.4017V33.46H59.6017V31H50.7417V33.46H48.9217ZM71.3741 31V21.58L71.8541 22.08H67.4941V20.4H77.1741V22.08H72.8341L73.2941 21.58V31H71.3741ZM83.3886 31.12C82.2553 31.12 81.2553 30.8867 80.3886 30.42C79.5353 29.9533 78.8686 29.3133 78.3886 28.5C77.9219 27.6867 77.6886 26.7533 77.6886 25.7C77.6886 24.6467 77.9153 23.7133 78.3686 22.9C78.8353 22.0867 79.4686 21.4533 80.2686 21C81.0819 20.5333 81.9953 20.3 83.0086 20.3C84.0353 20.3 84.9419 20.5267 85.7286 20.98C86.5153 21.4333 87.1286 22.0733 87.5686 22.9C88.0219 23.7133 88.2486 24.6667 88.2486 25.76C88.2486 25.84 88.2419 25.9333 88.2286 26.04C88.2286 26.1467 88.2219 26.2467 88.2086 26.34H79.1886V24.96H87.2086L86.4286 25.44C86.4419 24.76 86.3019 24.1533 86.0086 23.62C85.7153 23.0867 85.3086 22.6733 84.7886 22.38C84.2819 22.0733 83.6886 21.92 83.0086 21.92C82.3419 21.92 81.7486 22.0733 81.2286 22.38C80.7086 22.6733 80.3019 23.0933 80.0086 23.64C79.7153 24.1733 79.5686 24.7867 79.5686 25.48V25.8C79.5686 26.5067 79.7286 27.14 80.0486 27.7C80.3819 28.2467 80.8419 28.6733 81.4286 28.98C82.0153 29.2867 82.6886 29.44 83.4486 29.44C84.0753 29.44 84.6419 29.3333 85.1486 29.12C85.6686 28.9067 86.1219 28.5867 86.5086 28.16L87.5686 29.4C87.0886 29.96 86.4886 30.3867 85.7686 30.68C85.0619 30.9733 84.2686 31.12 83.3886 31.12ZM96.1272 31.16C95.2472 31.16 94.4672 31.02 93.7872 30.74C93.1205 30.46 92.5472 30.0467 92.0672 29.5C91.5872 28.94 91.2205 28.24 90.9672 27.4C90.7272 26.5467 90.6072 25.5467 90.6072 24.4C90.6072 23.4933 90.6872 22.68 90.8472 21.96C91.0072 21.24 91.2339 20.6 91.5272 20.04C91.8339 19.48 92.2072 18.9933 92.6472 18.58C93.1005 18.1667 93.6072 17.8267 94.1672 17.56C94.7405 17.28 95.3672 17.0667 96.0472 16.92L100.887 15.84L101.167 17.62L96.7072 18.58C96.4405 18.6333 96.1205 18.7133 95.7472 18.82C95.3739 18.9267 94.9939 19.0933 94.6072 19.32C94.2205 19.5333 93.8605 19.8333 93.5272 20.22C93.1939 20.6067 92.9272 21.1133 92.7272 21.74C92.5272 22.3533 92.4272 23.1133 92.4272 24.02C92.4272 24.2733 92.4339 24.4667 92.4472 24.6C92.4605 24.7333 92.4739 24.8667 92.4872 25C92.5139 25.1333 92.5339 25.3333 92.5472 25.6L91.7472 24.78C91.9605 24.0467 92.3005 23.4067 92.7672 22.86C93.2339 22.3133 93.7939 21.8933 94.4472 21.6C95.1139 21.2933 95.8405 21.14 96.6272 21.14C97.6139 21.14 98.4872 21.3533 99.2472 21.78C100.021 22.2067 100.627 22.7933 101.067 23.54C101.507 24.2867 101.727 25.14 101.727 26.1C101.727 27.0733 101.494 27.9467 101.027 28.72C100.574 29.48 99.9272 30.08 99.0872 30.52C98.2472 30.9467 97.2605 31.16 96.1272 31.16ZM96.3072 29.56C96.9872 29.56 97.5872 29.4133 98.1072 29.12C98.6272 28.8133 99.0339 28.4067 99.3272 27.9C99.6205 27.38 99.7672 26.8 99.7672 26.16C99.7672 25.52 99.6205 24.9533 99.3272 24.46C99.0339 23.9667 98.6272 23.58 98.1072 23.3C97.5872 23.0067 96.9739 22.86 96.2672 22.86C95.6005 22.86 95.0005 23 94.4672 23.28C93.9339 23.5467 93.5205 23.9267 93.2272 24.42C92.9339 24.9 92.7872 25.46 92.7872 26.1C92.7872 26.74 92.9339 27.3267 93.2272 27.86C93.5339 28.38 93.9472 28.7933 94.4672 29.1C95.0005 29.4067 95.6139 29.56 96.3072 29.56ZM110.898 31V27.28L111.198 27.64H107.818C106.404 27.64 105.298 27.34 104.498 26.74C103.711 26.14 103.318 25.2667 103.318 24.12C103.318 22.8933 103.738 21.9667 104.578 21.34C105.431 20.7133 106.564 20.4 107.978 20.4H112.618V31H110.898ZM103.218 31L106.098 26.94H108.078L105.278 31H103.218ZM110.898 26.68V21.54L111.198 22.08H108.038C107.158 22.08 106.478 22.2467 105.998 22.58C105.518 22.9 105.278 23.4333 105.278 24.18C105.278 25.5667 106.171 26.26 107.958 26.26H111.198L110.898 26.68ZM121.735 31V20.4H126.655C127.895 20.4 128.868 20.64 129.575 21.12C130.295 21.5867 130.655 22.2533 130.655 23.12C130.655 23.9867 130.315 24.66 129.635 25.14C128.968 25.6067 128.082 25.84 126.975 25.84L127.275 25.32C128.542 25.32 129.482 25.5533 130.095 26.02C130.708 26.4867 131.015 27.1733 131.015 28.08C131.015 29 130.668 29.72 129.975 30.24C129.295 30.7467 128.248 31 126.835 31H121.735ZM123.615 29.52H126.695C127.495 29.52 128.095 29.4 128.495 29.16C128.895 28.9067 129.095 28.5067 129.095 27.96C129.095 27.4 128.908 26.9933 128.535 26.74C128.175 26.4733 127.602 26.34 126.815 26.34H123.615V29.52ZM123.615 24.96H126.495C127.228 24.96 127.782 24.8267 128.155 24.56C128.542 24.28 128.735 23.8933 128.735 23.4C128.735 22.8933 128.542 22.5133 128.155 22.26C127.782 22.0067 127.228 21.88 126.495 21.88H123.615V24.96ZM134.02 31V20.4H135.94V28.12L142.44 20.4H144.18V31H142.26V23.28L135.78 31H134.02ZM155.147 30.1V22.08H150.547L150.447 24.12C150.42 24.7867 150.374 25.4333 150.307 26.06C150.254 26.6733 150.16 27.24 150.027 27.76C149.907 28.28 149.727 28.7067 149.487 29.04C149.247 29.3733 148.927 29.58 148.527 29.66L146.627 29.32C147.04 29.3333 147.374 29.2 147.627 28.92C147.88 28.6267 148.074 28.2267 148.207 27.72C148.354 27.2133 148.46 26.64 148.527 26C148.594 25.3467 148.647 24.6733 148.687 23.98L148.847 20.4H157.067V30.1H155.147ZM146.207 33.46V29.32H158.687V33.46H156.887V31H148.027V33.46H146.207ZM165.908 31.12C164.775 31.12 163.775 30.8867 162.908 30.42C162.055 29.9533 161.388 29.3133 160.908 28.5C160.441 27.6867 160.208 26.7533 160.208 25.7C160.208 24.6467 160.435 23.7133 160.888 22.9C161.355 22.0867 161.988 21.4533 162.788 21C163.601 20.5333 164.515 20.3 165.528 20.3C166.555 20.3 167.461 20.5267 168.248 20.98C169.035 21.4333 169.648 22.0733 170.088 22.9C170.541 23.7133 170.768 24.6667 170.768 25.76C170.768 25.84 170.761 25.9333 170.748 26.04C170.748 26.1467 170.741 26.2467 170.728 26.34H161.708V24.96H169.728L168.948 25.44C168.961 24.76 168.821 24.1533 168.528 23.62C168.235 23.0867 167.828 22.6733 167.308 22.38C166.801 22.0733 166.208 21.92 165.528 21.92C164.861 21.92 164.268 22.0733 163.748 22.38C163.228 22.6733 162.821 23.0933 162.528 23.64C162.235 24.1733 162.088 24.7867 162.088 25.48V25.8C162.088 26.5067 162.248 27.14 162.568 27.7C162.901 28.2467 163.361 28.6733 163.948 28.98C164.535 29.2867 165.208 29.44 165.968 29.44C166.595 29.44 167.161 29.3333 167.668 29.12C168.188 28.9067 168.641 28.5867 169.028 28.16L170.088 29.4C169.608 29.96 169.008 30.3867 168.288 30.68C167.581 30.9733 166.788 31.12 165.908 31.12ZM175.398 31V21.58L175.878 22.08H171.518V20.4H181.198V22.08H176.858L177.317 21.58V31H175.398ZM188.061 24C189.407 24.0133 190.434 24.32 191.141 24.92C191.847 25.52 192.201 26.3667 192.201 27.46C192.201 28.6067 191.814 29.4933 191.041 30.12C190.267 30.7333 189.174 31.0333 187.761 31.02L183.161 31V20.4H185.081V23.98L188.061 24ZM187.601 29.56C188.467 29.5733 189.121 29.4 189.561 29.04C190.014 28.68 190.241 28.1467 190.241 27.44C190.241 26.7467 190.021 26.24 189.581 25.92C189.141 25.6 188.481 25.4333 187.601 25.42L185.081 25.38V29.54L187.601 29.56ZM194.725 26.58L194.365 17H196.625L196.245 26.58H194.725ZM195.505 31.12C195.131 31.12 194.818 30.9933 194.565 30.74C194.311 30.4867 194.185 30.1867 194.185 29.84C194.185 29.4667 194.311 29.16 194.565 28.92C194.818 28.68 195.131 28.56 195.505 28.56C195.878 28.56 196.185 28.68 196.425 28.92C196.665 29.16 196.785 29.4667 196.785 29.84C196.785 30.1867 196.665 30.4867 196.425 30.74C196.185 30.9933 195.878 31.12 195.505 31.12Z" fill="#3E3E3E"/>
</svg>
