<svg width="37" height="42" viewBox="0 0 37 42" fill="none" xmlns="http://www.w3.org/2000/svg">
<path d="M0 37.2V15.6C0 14.84 0.164187 14.12 0.492562 13.44C0.820937 12.76 1.27342 12.2 1.85 11.76L15.725 0.96C16.5344 0.32 17.4594 0 18.5 0C19.5406 0 20.4656 0.32 21.275 0.96L35.15 11.76C35.7281 12.2 36.1814 12.76 36.5097 13.44C36.8381 14.12 37.0015 14.84 37 15.6V37.2C37 38.52 36.5467 39.6504 35.6402 40.5912C34.7337 41.532 33.6453 42.0016 32.375 42H25.4375C24.7823 42 24.2335 41.7696 23.791 41.3088C23.3485 40.848 23.1265 40.2784 23.125 39.6V27.6C23.125 26.92 22.903 26.3504 22.459 25.8912C22.015 25.432 21.4662 25.2016 20.8125 25.2H16.1875C15.5323 25.2 14.9835 25.4304 14.541 25.8912C14.0985 26.352 13.8765 26.9216 13.875 27.6V39.6C13.875 40.28 13.653 40.8504 13.209 41.3112C12.765 41.772 12.2162 42.0016 11.5625 42H4.625C3.35312 42 2.26471 41.5304 1.35975 40.5912C0.454791 39.652 0.00154167 38.5216 0 37.2Z" fill="#FAF8F5"/>
</svg>
