<svg width="20" height="20" viewBox="0 0 20 20" fill="none" xmlns="http://www.w3.org/2000/svg">
<path fill-rule="evenodd" clip-rule="evenodd" d="M17.4999 14.1667C17.4999 15.2718 17.0609 16.3316 16.2795 17.113C15.4981 17.8944 14.4383 18.3334 13.3333 18.3334H9.16659C8.94557 18.3334 8.73361 18.2456 8.57733 18.0893C8.42105 17.9331 8.33325 17.7211 8.33325 17.5001C8.33325 17.2791 8.42105 17.0671 8.57733 16.9108C8.73361 16.7545 8.94557 16.6667 9.16659 16.6667H13.3333C13.9963 16.6667 14.6322 16.4034 15.101 15.9345C15.5699 15.4657 15.8333 14.8298 15.8333 14.1667V5.83341C15.8333 5.17037 15.5699 4.53449 15.101 4.06565C14.6322 3.59681 13.9963 3.33341 13.3333 3.33341H9.16659C8.94557 3.33341 8.73361 3.24562 8.57733 3.08934C8.42105 2.93306 8.33325 2.7211 8.33325 2.50008C8.33325 2.27907 8.42105 2.06711 8.57733 1.91083C8.73361 1.75455 8.94557 1.66675 9.16659 1.66675H13.3333C14.4383 1.66675 15.4981 2.10573 16.2795 2.88714C17.0609 3.66854 17.4999 4.72835 17.4999 5.83341V14.1667Z" fill="#3E3E3E"/>
<path fill-rule="evenodd" clip-rule="evenodd" d="M8.725 6.09679C8.79983 6.01686 8.88968 5.95247 8.98941 5.90728C9.08914 5.8621 9.19679 5.83701 9.30622 5.83345C9.41565 5.82989 9.52471 5.84793 9.62717 5.88654C9.72962 5.92514 9.82347 5.98356 9.90333 6.05845L13.9033 9.80845C13.9866 9.8864 14.053 9.98061 14.0983 10.0853C14.1437 10.1899 14.1671 10.3027 14.1671 10.4168C14.1671 10.5308 14.1437 10.6437 14.0983 10.7483C14.053 10.853 13.9866 10.9472 13.9033 11.0251L9.90333 14.7751C9.82345 14.85 9.7296 14.9084 9.62715 14.9469C9.52469 14.9855 9.41565 15.0036 9.30623 15C9.19681 14.9964 9.08916 14.9714 8.98944 14.9262C8.88971 14.881 8.79985 14.8167 8.725 14.7368C8.65015 14.6569 8.59176 14.5631 8.55318 14.4606C8.51459 14.3581 8.49657 14.2491 8.50013 14.1397C8.50369 14.0303 8.52876 13.9226 8.57392 13.8229C8.61908 13.7232 8.68345 13.6333 8.76333 13.5585L11.2258 11.2501H3.33333C3.11232 11.2501 2.90036 11.1623 2.74408 11.006C2.5878 10.8498 2.5 10.6378 2.5 10.4168C2.5 10.1958 2.5878 9.98381 2.74408 9.82753C2.90036 9.67125 3.11232 9.58345 3.33333 9.58345H11.2258L8.76333 7.27512C8.68341 7.20029 8.61901 7.11044 8.57383 7.01071C8.52864 6.91098 8.50355 6.80333 8.49999 6.6939C8.49644 6.58447 8.51447 6.47541 8.55308 6.37295C8.59169 6.2705 8.65011 6.17665 8.725 6.09679Z" fill="#3E3E3E"/>
</svg>
