<svg width="40" height="40" viewBox="0 0 40 40" fill="none" xmlns="http://www.w3.org/2000/svg">
<rect x="0.5" y="0.5" width="39" height="39" rx="19.5" stroke="#8983E1"/>
<path d="M22.362 12.0782C22.362 12.0782 22.477 14.0482 24.215 15.7852C25.953 17.5232 27.922 17.6392 27.922 17.6392L28.849 16.7122C29.5865 15.9748 30.0007 14.9746 30.0007 13.9317C30.0007 12.8888 29.5865 11.8887 28.849 11.1512C28.1116 10.4138 27.1114 9.99951 26.0685 9.99951C25.0256 9.99951 24.0255 10.4138 23.288 11.1512L22.361 12.0782L20.001 14.4382M27.922 17.6382L22.662 22.9002L19.561 25.9992L19.401 26.1602C18.823 26.7372 18.534 27.0262 18.216 27.2742C17.8405 27.5668 17.4345 27.818 17.005 28.0232C16.641 28.1962 16.254 28.3252 15.479 28.5832L12.198 29.6772M12.198 29.6772L11.396 29.9452C11.2091 30.0079 11.0083 30.0172 10.8164 29.9721C10.6245 29.927 10.4489 29.8292 10.3095 29.6898C10.1701 29.5503 10.0723 29.3748 10.0272 29.1828C9.98203 28.9909 9.99133 28.7902 10.054 28.6032L10.322 27.8012M12.198 29.6772L10.322 27.8012M10.322 27.8012L11.416 24.5202C11.674 23.7452 11.803 23.3582 11.976 22.9942C12.182 22.5629 12.4317 22.1592 12.725 21.7832C12.973 21.4652 13.262 21.1762 13.839 20.5992L16.501 17.9382" stroke="#8983E1" stroke-width="1.5" stroke-linecap="round"/>
</svg>
