<svg width="34" height="36" viewBox="0 0 34 36" fill="none" xmlns="http://www.w3.org/2000/svg">
<path d="M17.0001 23.0614C19.8118 23.0614 22.0912 20.782 22.0912 17.9703C22.0912 15.1585 19.8118 12.8792 17.0001 12.8792C14.1883 12.8792 11.9089 15.1585 11.9089 17.9703C11.9089 20.782 14.1883 23.0614 17.0001 23.0614Z" stroke="#8B87E7" stroke-width="1.5"/>
<path d="M19.9953 1.25795C19.3725 1 18.5816 1 17 1C15.4184 1 14.6275 1 14.0047 1.25795C13.5927 1.42852 13.2182 1.67864 12.9029 1.994C12.5875 2.30935 12.3374 2.68377 12.1668 3.09584C12.0107 3.47428 11.9479 3.91721 11.9242 4.56039C11.9131 5.02526 11.7843 5.47973 11.5499 5.88129C11.3154 6.28285 10.9829 6.61837 10.5835 6.85648C10.1776 7.0835 9.7207 7.20382 9.25562 7.20619C8.79053 7.20857 8.33245 7.09292 7.92423 6.87006C7.35403 6.56799 6.94165 6.40168 6.53266 6.34737C5.64056 6.23005 4.73838 6.47178 4.02444 7.0194C3.49157 7.43178 3.09446 8.11569 2.30364 9.4852C1.51282 10.8547 1.11571 11.5386 1.02916 12.2089C0.970845 12.6509 1.00018 13.1001 1.11549 13.5308C1.23079 13.9614 1.42982 14.3651 1.70119 14.7189C1.95235 15.0447 2.30364 15.3179 2.84839 15.6607C3.65109 16.1647 4.16699 17.0234 4.16699 17.9704C4.16699 18.9173 3.65109 19.776 2.84839 20.2784C2.30364 20.6229 1.95066 20.8961 1.70119 21.2219C1.42982 21.5756 1.23079 21.9794 1.11549 22.41C1.00018 22.8407 0.970845 23.2898 1.02916 23.7318C1.11741 24.4005 1.51282 25.0861 2.30194 26.4556C3.09446 27.8251 3.48987 28.509 4.02444 28.9214C4.37816 29.1928 4.78189 29.3918 5.21254 29.5071C5.6432 29.6224 6.09236 29.6517 6.53436 29.5934C6.94165 29.5391 7.35403 29.3728 7.92423 29.0707C8.33245 28.8479 8.79053 28.7322 9.25562 28.7346C9.7207 28.737 10.1776 28.8573 10.5835 29.0843C11.4032 29.5595 11.8902 30.4334 11.9242 31.3804C11.9479 32.0253 12.009 32.4665 12.1668 32.8449C12.3374 33.257 12.5875 33.6314 12.9029 33.9468C13.2182 34.2621 13.5927 34.5123 14.0047 34.6828C14.6275 34.9408 15.4184 34.9408 17 34.9408C18.5816 34.9408 19.3725 34.9408 19.9953 34.6828C20.4073 34.5123 20.7818 34.2621 21.0971 33.9468C21.4125 33.6314 21.6626 33.257 21.8332 32.8449C21.9893 32.4665 22.0521 32.0253 22.0758 31.3804C22.1098 30.4334 22.5968 29.5578 23.4165 29.0843C23.8224 28.8573 24.2793 28.737 24.7444 28.7346C25.2095 28.7322 25.6675 28.8479 26.0758 29.0707C26.646 29.3728 27.0584 29.5391 27.4656 29.5934C27.9076 29.6517 28.3568 29.6224 28.7875 29.5071C29.2181 29.3918 29.6218 29.1928 29.9756 28.9214C30.5101 28.5107 30.9055 27.8251 31.6964 26.4556C32.4872 25.0861 32.8843 24.4022 32.9708 23.7318C33.0292 23.2898 32.9998 22.8407 32.8845 22.41C32.7692 21.9794 32.5702 21.5756 32.2988 21.2219C32.0476 20.8961 31.6964 20.6229 31.1516 20.2801C30.7544 20.0381 30.425 19.6992 30.1944 19.2953C29.9638 18.8913 29.8395 18.4355 29.833 17.9704C29.833 17.0234 30.3489 16.1647 31.1516 15.6624C31.6964 15.3179 32.0493 15.0447 32.2988 14.7189C32.5702 14.3651 32.7692 13.9614 32.8845 13.5308C32.9998 13.1001 33.0292 12.6509 32.9708 12.2089C32.8826 11.5403 32.4872 10.8547 31.6981 9.4852C30.9055 8.11569 30.5101 7.43178 29.9756 7.0194C29.6218 6.74803 29.2181 6.549 28.7875 6.43369C28.3568 6.31838 27.9076 6.28905 27.4656 6.34737C27.0584 6.40168 26.646 6.56799 26.0741 6.87006C25.6661 7.09261 25.2083 7.2081 24.7435 7.20573C24.2788 7.20335 23.8222 7.0832 23.4165 6.85648C23.0171 6.61837 22.6846 6.28285 22.4501 5.88129C22.2157 5.47973 22.0869 5.02526 22.0758 4.56039C22.0521 3.91551 21.991 3.47428 21.8332 3.09584C21.6626 2.68377 21.4125 2.30935 21.0971 1.994C20.7818 1.67864 20.4073 1.42852 19.9953 1.25795Z" stroke="#8B87E7" stroke-width="1.5"/>
</svg>
