<svg width="45" height="27" viewBox="0 0 45 27" fill="none" xmlns="http://www.w3.org/2000/svg">
<path d="M8.40497 0.0203497C8.1568 -0.0193332 7.90428 -0.000853416 7.66239 0.0746931L4.03948 1.20068C3.80154 1.27481 3.57855 1.40255 3.38322 1.57662C3.1879 1.7507 3.02408 1.96768 2.90113 2.21517C2.77819 2.46267 2.69851 2.73582 2.66668 3.01902C2.63484 3.30222 2.65146 3.58992 2.71558 3.86567L2.95936 4.91341C3.02291 5.19156 2.98872 5.48757 2.86428 5.73655C2.73984 5.98552 2.53531 6.16713 2.29553 6.24156L1.3898 6.52632C1.1519 6.60022 0.928895 6.72773 0.733512 6.90155C0.538128 7.07537 0.374199 7.29211 0.251085 7.53939C0.127971 7.78666 0.0480856 8.05962 0.0159902 8.34269C-0.0161051 8.62576 0.00021875 8.91338 0.0640294 9.18913L2.97623 21.7859C3.03999 22.0617 3.14998 22.3202 3.29994 22.5467C3.44989 22.7731 3.63686 22.9632 3.85018 23.1059C4.06349 23.2486 4.29897 23.3412 4.54317 23.3784C4.78736 23.4156 5.03548 23.3967 5.27337 23.3227L6.17722 23.0423C6.29616 23.0051 6.42026 22.9955 6.54241 23.014C6.66457 23.0324 6.78239 23.0786 6.88914 23.1498C6.99589 23.2211 7.08948 23.3161 7.16457 23.4293C7.23965 23.5425 7.29475 23.6717 7.32672 23.8096L7.5705 24.8595C7.69928 25.416 8.01337 25.8904 8.44375 26.1786C8.87413 26.4668 9.38559 26.5451 9.86576 26.3964L13.4868 25.2704C13.9668 25.1211 14.3761 24.757 14.6247 24.2581C14.8733 23.7592 14.9409 23.1663 14.8126 22.6097L13.0011 14.7734C12.9373 14.4862 12.9671 14.1817 13.0847 13.9183C13.2023 13.6548 13.3995 13.4509 13.6387 13.3453C16.4869 12.1949 19.4829 11.6135 22.4991 11.6259C26.0226 11.6259 28.9817 12.3802 31.3632 13.3453C31.8507 13.5453 32.132 14.1931 31.9989 14.7734L30.1874 22.6097C30.0591 23.1663 30.1267 23.7592 30.3753 24.2581C30.6239 24.757 31.0332 25.1211 31.5132 25.2704L35.1342 26.3964C35.3721 26.4703 35.6203 26.4893 35.8644 26.4521C36.1086 26.4148 36.3441 26.3222 36.5574 26.1795C36.7707 26.0368 36.9577 25.8468 37.1077 25.6203C37.2576 25.3938 37.3676 25.1353 37.4314 24.8595L37.6733 23.8096C37.7052 23.6717 37.7604 23.5425 37.8354 23.4293C37.9105 23.3161 38.0041 23.2211 38.1109 23.1498C38.2176 23.0786 38.3354 23.0324 38.4576 23.014C38.5797 22.9955 38.7038 23.0051 38.8228 23.0423L39.7285 23.3227C40.2087 23.4714 40.7201 23.3931 41.1505 23.105C41.5809 22.8168 41.895 22.3424 42.0238 21.7859L44.936 9.18913C44.9998 8.91338 45.0161 8.62576 44.984 8.34269C44.9519 8.05962 44.872 7.78666 44.7489 7.53939C44.6258 7.29211 44.4619 7.07537 44.2665 6.90155C44.0711 6.72773 43.8481 6.60022 43.6102 6.52632L42.7045 6.24373C42.4646 6.16886 42.2602 5.98672 42.1361 5.7373C42.012 5.48788 41.9783 5.19157 42.0425 4.91341L42.2844 3.86567C42.3482 3.58992 42.3646 3.3023 42.3325 3.01923C42.3004 2.73616 42.2205 2.4632 42.0974 2.21593C41.9743 1.96865 41.8103 1.75191 41.6149 1.57809C41.4196 1.40427 41.1965 1.27676 40.9586 1.20286L37.3357 0.0768666C36.8553 -0.0717882 36.3436 0.00683248 35.9132 0.295438C35.4828 0.584044 35.1689 1.059 35.0405 1.61587L33.454 8.47398C33.4245 8.60854 33.3708 8.73438 33.2965 8.84331C33.2222 8.95224 33.129 9.04181 33.0228 9.1062C32.9167 9.17058 32.8001 9.20834 32.6805 9.21701C32.5609 9.22568 32.4412 9.20508 32.3289 9.15653C29.1639 7.90721 25.8426 7.27263 22.4991 7.27843C18.683 7.27843 15.3751 8.08705 12.6692 9.15653C12.557 9.20508 12.4372 9.22568 12.3176 9.21701C12.1981 9.20834 12.0814 9.17058 11.9753 9.1062C11.8692 9.04181 11.7759 8.95224 11.7016 8.84331C11.6273 8.73438 11.5736 8.60854 11.5441 8.47398L9.95952 1.61587C9.86446 1.2024 9.66624 0.83066 9.3897 0.547222C9.11316 0.263785 8.77061 0.0790867 8.40497 0.0203497Z" fill="#6141B2"/>
</svg>
