<svg width="25" height="24" viewBox="0 0 25 24" fill="none" xmlns="http://www.w3.org/2000/svg">
<path fill-rule="evenodd" clip-rule="evenodd" d="M14.0509 0.102307C14.7003 0.228426 15.6488 0.556607 16.1064 1.48148C17.1086 3.50753 16.2808 5.43322 15.3926 6.63068C14.813 7.4118 14.067 8.14682 13.199 8.59705C13.0179 8.69198 12.6489 8.86828 12.2236 8.86828C11.4307 8.86828 10.6539 8.50348 10.0166 8.04782C9.89587 8.4628 9.77914 8.91845 9.67852 9.40123C9.47953 10.3275 9.37167 11.2715 9.35652 12.2193C10.7693 11.7582 12.2142 11.807 13.4593 12.5176C14.395 11.7749 15.4711 11.2335 16.6215 10.9269C18.3657 10.4644 20.4587 10.5282 22.3598 11.8083C23.7215 12.7264 24.7533 14.4555 24.9612 16.3473C25.1786 18.3191 24.501 20.4753 22.4523 22.1325C21.006 23.3015 18.8017 23.7531 16.7732 23.9172C14.6735 24.088 12.4557 23.9714 10.7344 23.7775C7.54396 23.4195 5.09411 22.519 3.38217 21.5901C2.25921 20.9798 0.723025 20.1363 0.236007 18.8439C-0.0926969 17.9679 -0.00683152 16.9047 0.0736673 15.9933C0.180999 14.7986 0.443962 13.3069 0.936346 11.6904C1.91843 8.46415 3.84101 4.64667 7.34405 1.72016C8.4214 0.819695 10.2246 0.260973 11.7339 0.0738284C12.5121 -0.0224563 13.3305 -0.0360176 14.0509 0.102307Z" fill="white"/>
</svg>
