<svg width="25" height="25" viewBox="0 0 25 25" fill="none" xmlns="http://www.w3.org/2000/svg">
<path d="M12.5 0.5C14.0913 0.5 15.6174 1.13214 16.7426 2.25736C17.8679 3.38258 18.5 4.9087 18.5 6.5C18.5 8.0913 17.8679 9.61742 16.7426 10.7426C15.6174 11.8679 14.0913 12.5 12.5 12.5C10.9087 12.5 9.38258 11.8679 8.25736 10.7426C7.13214 9.61742 6.5 8.0913 6.5 6.5C6.5 4.9087 7.13214 3.38258 8.25736 2.25736C9.38258 1.13214 10.9087 0.5 12.5 0.5ZM12.5 15.5C19.13 15.5 24.5 18.185 24.5 21.5V24.5H0.5V21.5C0.5 18.185 5.87 15.5 12.5 15.5Z" fill="#FAF8F5"/>
</svg>
