<svg width="47" height="46" viewBox="0 0 47 46" fill="none" xmlns="http://www.w3.org/2000/svg">
<rect x="0.5" width="46" height="46" rx="23" fill="#4E4E4E"/>
<path d="M23.5 10.5C25.0913 10.5 26.6174 11.1321 27.7426 12.2574C28.8679 13.3826 29.5 14.9087 29.5 16.5C29.5 18.0913 28.8679 19.6174 27.7426 20.7426C26.6174 21.8679 25.0913 22.5 23.5 22.5C21.9087 22.5 20.3826 21.8679 19.2574 20.7426C18.1321 19.6174 17.5 18.0913 17.5 16.5C17.5 14.9087 18.1321 13.3826 19.2574 12.2574C20.3826 11.1321 21.9087 10.5 23.5 10.5ZM23.5 25.5C30.13 25.5 35.5 28.185 35.5 31.5V34.5H11.5V31.5C11.5 28.185 16.87 25.5 23.5 25.5Z" fill="#FAF8F5"/>
</svg>
