<svg width="62" height="62" viewBox="0 0 62 62" fill="none" xmlns="http://www.w3.org/2000/svg">
<rect width="62" height="62" rx="31" fill="#C9C9C9"/>
<path fill-rule="evenodd" clip-rule="evenodd" d="M24.5 23C24.5 21.4087 25.1321 19.8826 26.2574 18.7574C27.3826 17.6321 28.9087 17 30.5 17C32.0913 17 33.6174 17.6321 34.7426 18.7574C35.8679 19.8826 36.5 21.4087 36.5 23C36.5 24.5913 35.8679 26.1174 34.7426 27.2426C33.6174 28.3679 32.0913 29 30.5 29C28.9087 29 27.3826 28.3679 26.2574 27.2426C25.1321 26.1174 24.5 24.5913 24.5 23ZM24.5 32C22.5109 32 20.6032 32.7902 19.1967 34.1967C17.7902 35.6032 17 37.5109 17 39.5C17 40.6935 17.4741 41.8381 18.318 42.682C19.1619 43.5259 20.3065 44 21.5 44H39.5C40.6935 44 41.8381 43.5259 42.682 42.682C43.5259 41.8381 44 40.6935 44 39.5C44 37.5109 43.2098 35.6032 41.8033 34.1967C40.3968 32.7902 38.4891 32 36.5 32H24.5Z" fill="#818181"/>
</svg>
