<svg width="304" height="304" viewBox="0 0 304 304" fill="none" xmlns="http://www.w3.org/2000/svg">
<circle cx="152" cy="152" r="152" fill="url(#paint0_linear_1087_657)"/>
<circle cx="152" cy="152" r="152" fill="#F8F1E8"/>
<path d="M300.576 184.083C305.359 161.929 305.128 138.986 299.9 116.934C299.9 116.934 279.158 103.158 238.316 123.391C197.474 143.624 161.684 190.506 97.6842 184.083C33.6842 177.659 2.71663 123.391 2.71663 123.391C-1.54914 145.65 -0.783247 168.581 4.95825 190.506C10.6997 212.431 21.2715 232.794 35.8996 250.106C50.5278 267.417 68.842 281.238 89.5016 290.557C110.161 299.876 132.643 304.457 155.302 303.964C177.961 303.472 200.223 297.919 220.458 287.711C240.693 277.504 258.39 262.9 272.252 244.97C286.115 227.04 295.792 206.236 300.576 184.083Z" fill="url(#paint1_linear_1087_657)"/>
<defs>
<linearGradient id="paint0_linear_1087_657" x1="273.5" y1="51.5" x2="27.6509" y2="241.627" gradientUnits="userSpaceOnUse">
<stop stop-color="#FFF7E9"/>
<stop offset="1" stop-color="#E4D7C2"/>
</linearGradient>
<linearGradient id="paint1_linear_1087_657" x1="277" y1="97.5001" x2="127.621" y2="377.596" gradientUnits="userSpaceOnUse">
<stop stop-color="#FFDE1D"/>
<stop offset="0.827224" stop-color="#FDFC8F"/>
</linearGradient>
</defs>
</svg>
