<svg width="26" height="26" viewBox="0 0 26 26" fill="none" xmlns="http://www.w3.org/2000/svg">
<path d="M13 0C20.1799 0 26 5.8201 26 13C26 20.1799 20.1799 26 13 26C5.8201 26 0 20.1799 0 13C0 5.8201 5.8201 0 13 0ZM13 5.2C12.6552 5.2 12.3246 5.33696 12.0808 5.58076C11.837 5.82456 11.7 6.15522 11.7 6.5V13C11.7001 13.3448 11.8371 13.6754 12.0809 13.9191L15.9809 17.8191C16.2261 18.0559 16.5545 18.1869 16.8953 18.184C17.2362 18.181 17.5622 18.0443 17.8033 17.8033C18.0443 17.5622 18.181 17.2362 18.184 16.8953C18.1869 16.5545 18.0559 16.2261 17.8191 15.9809L14.3 12.4618V6.5C14.3 6.15522 14.163 5.82456 13.9192 5.58076C13.6754 5.33696 13.3448 5.2 13 5.2Z" fill="#6141B2"/>
</svg>
