<svg width="47" height="46" viewBox="0 0 47 46" fill="none" xmlns="http://www.w3.org/2000/svg">
<rect x="0.5" width="46" height="46" rx="23" fill="#4E4E4E"/>
<path fill-rule="evenodd" clip-rule="evenodd" d="M25.051 11.1023C25.7003 11.2284 26.6489 11.5566 27.1064 12.4815C28.1086 14.5075 27.2808 16.4332 26.3926 17.6307C25.813 18.4118 25.067 19.1468 24.199 19.5971C24.0179 19.692 23.6489 19.8683 23.2236 19.8683C22.4307 19.8683 21.6539 19.5035 21.0166 19.0478C20.8959 19.4628 20.7791 19.9185 20.6785 20.4012C20.4795 21.3275 20.3717 22.2715 20.3565 23.2193C21.7693 22.7582 23.2142 22.807 24.4593 23.5176C25.395 22.7749 26.4711 22.2335 27.6215 21.9269C29.3657 21.4644 31.4587 21.5282 33.3598 22.8083C34.7215 23.7264 35.7533 25.4555 35.9612 27.3473C36.1786 29.3191 35.501 31.4753 33.4523 33.1325C32.0061 34.3015 29.8017 34.7531 27.7732 34.9172C25.6735 35.088 23.4557 34.9714 21.7344 34.7775C18.544 34.4195 16.0941 33.519 14.3822 32.5901C13.2592 31.9798 11.723 31.1363 11.236 29.8439C10.9073 28.9679 10.9932 27.9047 11.0737 26.9933C11.181 25.7986 11.444 24.3069 11.9363 22.6904C12.9184 19.4642 14.841 15.6467 18.3441 12.7202C19.4214 11.8197 21.2246 11.261 22.7339 11.0738C23.5121 10.9775 24.3305 10.964 25.051 11.1023Z" fill="white"/>
</svg>
